<svg width="55" height="55" viewBox="0 0 55 55" fill="none" xmlns="http://www.w3.org/2000/svg">
<path opacity="0.5" d="M27.5 0C20.0242 0 19.0925 0.0360983 16.1669 0.159864C13.2292 0.304257 11.242 0.759782 9.48869 1.44049C7.65363 2.13327 5.99173 3.21793 4.61886 4.61886C3.21402 5.98852 2.12876 7.65134 1.44049 9.48869C0.759783 11.242 0.304257 13.2292 0.159864 16.1669C0.0275034 19.0943 0 20.0242 0 27.5C0 34.9758 0.0360983 35.9075 0.159864 38.8331C0.304257 41.7622 0.759783 43.758 1.44049 45.5113C2.13327 47.3464 3.21793 49.0083 4.61886 50.3811C5.98852 51.786 7.65134 52.8712 9.48869 53.5595C11.242 54.2316 13.2377 54.6957 16.1669 54.8401C19.0943 54.9725 20.0242 55 27.5 55C34.9758 55 35.9075 54.9639 38.8331 54.8401C41.7623 54.6957 43.758 54.2299 45.5113 53.5595C47.3464 52.8667 49.0083 51.7821 50.3811 50.3811C51.7878 49.013 52.8733 47.3497 53.5595 45.5113C54.2316 43.758 54.6957 41.7622 54.8401 38.8331C54.9725 35.9057 55 34.9758 55 27.5C55 20.0242 54.9639 19.0925 54.8401 16.1669C54.6957 13.2377 54.2299 11.2317 53.5595 9.48869C52.8667 7.65363 51.7821 5.99173 50.3811 4.61886C49.013 3.21221 47.3497 2.12667 45.5113 1.44049C43.758 0.759782 41.7623 0.304257 38.8331 0.159864C35.9057 0.0275034 34.9758 0 27.5 0ZM27.5 4.95062C34.8417 4.95062 35.7184 4.98672 38.62 5.11048C41.2964 5.23597 42.7541 5.6829 43.7219 6.06107C44.9183 6.50271 46.0012 7.20564 46.8916 8.11867C47.8031 9.00536 48.5034 10.0858 48.9406 11.2798C49.3188 12.2476 49.7658 13.7053 49.8912 16.3817C50.015 19.2833 50.0511 20.1617 50.0511 27.5017C50.0511 34.8417 50.015 35.7201 49.8809 38.6217C49.7365 41.2981 49.2896 42.7558 48.9131 43.7236C48.3923 45.0145 47.8113 45.917 46.8521 46.8934C45.9587 47.8007 44.8765 48.5002 43.6823 48.9424C42.7266 49.3205 41.2483 49.7675 38.5615 49.893C35.6445 50.0167 34.785 50.0528 27.4244 50.0528C20.0638 50.0528 19.206 50.0167 16.2855 49.8826C13.609 49.7382 12.1325 49.2913 11.1647 48.9149C9.85826 48.394 8.96268 47.813 8.0035 46.8538C7.03572 45.886 6.42033 44.9647 5.9459 43.6841C5.56085 42.7283 5.1208 41.25 4.97812 38.5633C4.88014 35.6806 4.83373 34.7867 4.83373 27.4605C4.83373 20.1377 4.88014 19.2421 4.97812 16.3233C5.1208 13.6365 5.56085 12.1617 5.9459 11.2025C6.42033 9.89436 7.03744 9.0005 8.0035 8.03272C8.96096 7.07526 9.85826 6.45643 11.1647 5.97168C12.1325 5.59523 13.5729 5.1483 16.2597 5.01422C19.1768 4.90936 20.0363 4.87155 27.3865 4.87155L27.5 4.95062ZM27.5 13.3856C25.6458 13.3849 23.8097 13.7496 22.0965 14.4589C20.3834 15.1681 18.8268 16.208 17.5157 17.5191C16.2046 18.8302 15.1647 20.3868 14.4554 22.1C13.7462 23.8131 13.3815 25.6493 13.3821 27.5034C13.3815 29.3576 13.7462 31.1937 14.4554 32.9069C15.1647 34.6201 16.2046 36.1767 17.5157 37.4878C18.8268 38.7989 20.3834 39.8388 22.0965 40.548C23.8097 41.2573 25.6458 41.622 27.5 41.6213C29.3542 41.622 31.1903 41.2573 32.9035 40.548C34.6166 39.8388 36.1732 38.7989 37.4843 37.4878C38.7954 36.1767 39.8353 34.6201 40.5446 32.9069C41.2538 31.1937 41.6185 29.3576 41.6179 27.5034C41.6185 25.6493 41.2538 23.8131 40.5446 22.1C39.8353 20.3868 38.7954 18.8302 37.4843 17.5191C36.1732 16.208 34.6166 15.1681 32.9035 14.4589C31.1903 13.7496 29.3542 13.3849 27.5 13.3856V13.3856ZM27.5 36.6707C22.4325 36.6707 18.3328 32.5709 18.3328 27.5034C18.3328 22.4359 22.4325 18.3362 27.5 18.3362C32.5675 18.3362 36.6672 22.4359 36.6672 27.5034C36.6672 32.5709 32.5675 36.6707 27.5 36.6707ZM45.4872 12.8218C45.4863 13.6979 45.1377 14.5378 44.5179 15.1569C43.898 15.7761 43.0578 16.1239 42.1817 16.1239C41.7485 16.1239 41.3195 16.0386 40.9193 15.8728C40.5191 15.707 40.1555 15.464 39.8492 15.1577C39.5428 14.8514 39.2999 14.4878 39.1341 14.0876C38.9683 13.6873 38.883 13.2584 38.883 12.8252C38.883 12.392 38.9683 11.9631 39.1341 11.5628C39.2999 11.1626 39.5428 10.799 39.8492 10.4927C40.1555 10.1864 40.5191 9.94338 40.9193 9.7776C41.3195 9.61183 41.7485 9.5265 42.1817 9.5265C43.9986 9.5265 45.4872 11.0048 45.4872 12.8218V12.8218Z" fill="white"/>
</svg>
