<svg width="58" height="77" viewBox="0 0 58 77" fill="none" xmlns="http://www.w3.org/2000/svg">
<path d="M49.2834 68.8333H17.6457C12.417 68.8333 8.16658 64.5828 8.16658 59.3541C8.16658 54.1254 12.417 49.875 17.6457 49.875H44.1874C51.5053 49.875 57.4582 43.922 57.4582 36.6041C57.4582 29.2862 51.5053 23.3333 44.1874 23.3333H25.7561C24.3636 26.0628 22.6393 28.6099 20.6222 30.9166H44.1874C47.3231 30.9166 49.8749 33.4684 49.8749 36.6041C49.8749 39.7398 47.3231 42.2916 44.1874 42.2916H17.6457C8.23862 42.2916 0.583252 49.947 0.583252 59.3541C0.583252 68.7613 8.23862 76.4166 17.6457 76.4166H54.0192C52.1586 74.0763 50.5698 71.5322 49.2834 68.8333V68.8333ZM11.9582 0.583282C5.68683 0.583282 0.583252 5.68687 0.583252 11.9583C0.583252 24.0461 11.9582 30.9166 11.9582 30.9166C11.9582 30.9166 23.3332 24.0423 23.3332 11.9583C23.3332 5.68687 18.2297 0.583282 11.9582 0.583282ZM11.9582 17.6458C11.2111 17.6455 10.4713 17.4981 9.78116 17.212C9.09098 16.9258 8.46393 16.5065 7.93579 15.9781C7.40766 15.4496 6.98879 14.8222 6.7031 14.1319C6.41742 13.4415 6.2705 12.7016 6.27075 11.9545C6.271 11.2074 6.41841 10.4676 6.70456 9.7774C6.9907 9.08722 7.40999 8.46017 7.93848 7.93204C8.46696 7.4039 9.09429 6.98503 9.78466 6.69935C10.475 6.41366 11.2149 6.26674 11.962 6.26699C13.471 6.26749 14.9179 6.86739 15.9845 7.93472C17.0511 9.00204 17.65 10.4494 17.6495 11.9583C17.649 13.4672 17.0491 14.9141 15.9818 15.9807C14.9145 17.0474 13.4672 17.6463 11.9582 17.6458V17.6458Z" fill="#F9B776"/>
</svg>
