<svg width="91" height="78" viewBox="0 0 91 78" fill="none" xmlns="http://www.w3.org/2000/svg">
<path d="M63.7 13.75H72.8V77.45H18.2V13.75H27.3V9.20001C27.3 6.78654 28.2587 4.47191 29.9653 2.76533C31.6719 1.05875 33.9865 0.100006 36.4 0.100006H54.6C57.0135 0.100006 59.3281 1.05875 61.0347 2.76533C62.7413 4.47191 63.7 6.78654 63.7 9.20001V13.75ZM77.35 13.75H81.9C84.3135 13.75 86.6281 14.7088 88.3347 16.4153C90.0413 18.1219 91 20.4365 91 22.85V68.35C91 70.7635 90.0413 73.0781 88.3347 74.7847C86.6281 76.4913 84.3135 77.45 81.9 77.45H77.35V13.75ZM13.65 13.75V77.45H9.1C6.68653 77.45 4.37191 76.4913 2.66533 74.7847C0.958747 73.0781 0 70.7635 0 68.35V22.85C0 17.845 4.095 13.75 9.1 13.75H13.65ZM36.4 9.20001V13.75H54.6V9.20001H36.4Z" fill="#53D6FF"/>
</svg>
