<svg width="91" height="91" viewBox="0 0 91 91" fill="none" xmlns="http://www.w3.org/2000/svg">
<path d="M19.9062 0C20.6605 0 21.3838 0.299609 21.9171 0.832915C22.4504 1.36622 22.75 2.08954 22.75 2.84375V5.6875H68.25V2.84375C68.25 2.08954 68.5496 1.36622 69.0829 0.832915C69.6162 0.299609 70.3395 0 71.0938 0C71.848 0 72.5713 0.299609 73.1046 0.832915C73.6379 1.36622 73.9375 2.08954 73.9375 2.84375V5.6875H79.625C82.6418 5.6875 85.5351 6.88593 87.6683 9.01916C89.8016 11.1524 91 14.0457 91 17.0625V79.625C91 82.6418 89.8016 85.5351 87.6683 87.6683C85.5351 89.8016 82.6418 91 79.625 91H11.375C8.35816 91 5.46489 89.8016 3.33166 87.6683C1.19843 85.5351 0 82.6418 0 79.625V17.0625C0 14.0457 1.19843 11.1524 3.33166 9.01916C5.46489 6.88593 8.35816 5.6875 11.375 5.6875H17.0625V2.84375C17.0625 2.08954 17.3621 1.36622 17.8954 0.832915C18.4287 0.299609 19.152 0 19.9062 0V0ZM76.5196 17.0625H14.4747C12.7684 17.0625 11.375 18.3365 11.375 19.9062V25.5938C11.375 27.1635 12.7628 28.4375 14.4747 28.4375H76.5253C78.2316 28.4375 79.625 27.1635 79.625 25.5938V19.9062C79.625 18.3365 78.2373 17.0625 76.5196 17.0625ZM65.4062 39.8125C64.652 39.8125 63.9287 40.1121 63.3954 40.6454C62.8621 41.1787 62.5625 41.902 62.5625 42.6562V48.3438C62.5625 49.098 62.8621 49.8213 63.3954 50.3546C63.9287 50.8879 64.652 51.1875 65.4062 51.1875H71.0938C71.848 51.1875 72.5713 50.8879 73.1046 50.3546C73.6379 49.8213 73.9375 49.098 73.9375 48.3438V42.6562C73.9375 41.902 73.6379 41.1787 73.1046 40.6454C72.5713 40.1121 71.848 39.8125 71.0938 39.8125H65.4062Z" fill="#74C68B"/>
</svg>
