<svg width="58" height="58" viewBox="0 0 58 58" fill="none" xmlns="http://www.w3.org/2000/svg">
<path d="M48.3333 26.581H53.1666C53.1666 14.1835 43.8069 4.83337 31.3925 4.83337V9.66671C41.209 9.66671 48.3333 16.779 48.3333 26.581Z" fill="url(#paint0_linear_212:1065)"/>
<path d="M31.4167 19.3334C36.499 19.3334 38.6667 21.5011 38.6667 26.5834H43.5001C43.5001 18.7896 39.2105 14.5 31.4167 14.5V19.3334ZM39.6866 32.4873C39.2222 32.0652 38.612 31.8401 37.9848 31.8595C37.3575 31.8789 36.7624 32.1413 36.325 32.5912L30.5419 38.5386C29.1499 38.2728 26.3514 37.4004 23.4707 34.527C20.5901 31.6439 19.7177 28.8381 19.4591 27.4558L25.4017 21.6703C25.8522 21.2332 26.1149 20.6379 26.1343 20.0105C26.1537 19.3831 25.9282 18.7728 25.5056 18.3087L16.576 8.4898C16.1532 8.02424 15.5655 7.74185 14.9379 7.70259C14.3102 7.66334 13.6919 7.87031 13.2144 8.27955L7.97024 12.777C7.55242 13.1963 7.30304 13.7544 7.2694 14.3454C7.23315 14.9495 6.54199 29.261 17.6393 40.3632C27.3205 50.042 39.4473 50.75 42.7872 50.75C43.2753 50.75 43.575 50.7355 43.6547 50.7307C44.2456 50.6976 44.8034 50.4471 45.2207 50.0275L49.7157 44.7809C50.1253 44.3037 50.3327 43.6856 50.2939 43.0579C50.2551 42.4303 49.9731 41.8424 49.5079 41.4193L39.6866 32.4873V32.4873Z" fill="url(#paint1_linear_212:1065)"/>
<defs>
<linearGradient id="paint0_linear_212:1065" x1="42.2795" y1="4.83337" x2="42.2795" y2="26.581" gradientUnits="userSpaceOnUse">
<stop stop-color="#5A3C6D"/>
<stop offset="1" stop-color="#342040"/>
</linearGradient>
<linearGradient id="paint1_linear_212:1065" x1="28.7739" y1="7.69788" x2="28.7739" y2="50.75" gradientUnits="userSpaceOnUse">
<stop stop-color="#5A3C6D"/>
<stop offset="1" stop-color="#342040"/>
</linearGradient>
</defs>
</svg>
