<svg width="55" height="55" viewBox="0 0 55 55" fill="none" xmlns="http://www.w3.org/2000/svg">
<g opacity="0.5">
<path d="M46.9648 7.99577C44.4319 5.45091 41.4155 3.43334 38.0915 2.06062C34.7675 0.687894 31.2023 -0.0125272 27.6036 0.000169573C12.5242 0.000169573 0.234807 12.2308 0.220994 27.2457C0.220994 32.0548 1.48481 36.7332 3.87086 40.8754L0 55L14.5166 51.2119C18.5325 53.3875 23.0315 54.5279 27.6036 54.5291H27.6174C42.7003 54.5291 54.9862 42.2985 55 27.2698C55.0034 23.6881 54.2949 20.1411 52.9153 16.8331C51.5356 13.5252 49.5121 10.5217 46.9613 7.99577H46.9648ZM27.6036 49.916C23.5255 49.9173 19.5224 48.8249 16.0152 46.7535L15.1865 46.2585L6.57458 48.5066L8.87431 40.1432L8.33563 39.2804C6.05596 35.6721 4.8503 31.4945 4.85842 27.232C4.85842 14.7676 15.0691 4.59953 27.6174 4.59953C30.6068 4.59419 33.5678 5.17797 36.3295 6.31721C39.0912 7.45646 41.5991 9.12863 43.7086 11.2373C45.8254 13.3378 47.5035 15.8347 48.6461 18.584C49.7888 21.3334 50.3733 24.2807 50.366 27.256C50.3522 39.765 40.1416 49.916 27.6036 49.916V49.916ZM40.0863 32.9554C39.4061 32.6151 36.0463 30.9685 35.4144 30.7348C34.7859 30.5113 34.3266 30.3945 33.8778 31.0751C33.4185 31.7523 32.1063 33.2957 31.7127 33.7391C31.3191 34.1963 30.9116 34.2479 30.2279 33.911C29.5476 33.5673 27.3412 32.8523 24.7307 30.5251C22.6934 28.7204 21.3294 26.486 20.922 25.8088C20.5283 25.1282 20.884 24.7638 21.2258 24.4235C21.5262 24.121 21.9061 23.626 22.2479 23.2342C22.5932 22.8423 22.7072 22.5535 22.9316 22.0998C23.1561 21.6392 23.049 21.2473 22.8798 20.907C22.7072 20.5667 21.3432 17.2082 20.7666 15.8539C20.2141 14.5167 19.6512 14.7023 19.23 14.6851C18.8363 14.6611 18.3771 14.6611 17.9178 14.6611C17.571 14.6696 17.2297 14.7495 16.9154 14.8956C16.601 15.0417 16.3204 15.2509 16.0912 15.5101C15.4627 16.1907 13.7051 17.8373 13.7051 21.1957C13.7051 24.5542 16.1568 27.782 16.5021 28.2391C16.8405 28.6963 21.3156 35.5679 28.1837 38.5241C29.8066 39.2288 31.0842 39.6447 32.0822 39.961C33.7224 40.4835 35.2037 40.4044 36.3847 40.236C37.6968 40.0366 40.4282 38.586 41.0048 36.9944C41.5711 35.3994 41.5711 34.0382 41.3985 33.7529C41.2293 33.4641 40.77 33.2957 40.0863 32.9554V32.9554Z" fill="white"/>
</g>
</svg>
